<?xml version="1.0" standalone="no"?>
<!DOCTYPE svg PUBLIC "-//W3C//DTD SVG 20010904//EN"
 "http://www.w3.org/TR/2001/REC-SVG-20010904/DTD/svg10.dtd">
<svg version="1.0" xmlns="http://www.w3.org/2000/svg"
 width="500.000000pt" height="500.000000pt" viewBox="0 0 500.000000 500.000000"
 preserveAspectRatio="xMidYMid meet">

<g transform="translate(0.000000,500.000000) scale(0.100000,-0.100000)"
fill="#000000" stroke="none">
<path d="M760 2500 l0 -480 1740 0 1740 0 0 480 0 480 -1740 0 -1740 0 0 -480z
m3450 0 l0 -450 -1715 0 -1715 0 0 450 0 450 1715 0 1715 0 0 -450z"/>
<path d="M850 2500 l0 -390 825 0 825 0 0 390 0 390 -825 0 -825 0 0 -390z
m425 136 c39 -17 85 -79 61 -84 -7 -2 -27 11 -44 28 -58 57 -153 31 -168 -47
-19 -101 96 -165 168 -93 52 52 80 36 30 -18 -47 -50 -114 -59 -181 -23 -51
28 -68 129 -31 189 34 55 100 75 165 48z m341 -5 c84 -38 100 -154 30 -218
-87 -80 -226 -20 -226 96 0 108 95 168 196 122z m335 -14 c80 -54 70 -187 -18
-223 -18 -8 -60 -14 -93 -14 l-60 0 0 130 0 130 69 0 c54 0 75 -5 102 -23z
m299 8 c0 -12 -13 -15 -60 -15 l-60 0 0 -40 0 -40 55 0 c42 0 55 -3 55 -15 0
-12 -13 -15 -55 -15 l-55 0 0 -45 0 -45 65 0 c51 0 65 -3 65 -15 0 -12 -16
-15 -85 -15 l-85 0 0 130 0 130 80 0 c64 0 80 -3 80 -15z"/>
<path d="M1493 2595 c-54 -38 -46 -147 14 -174 58 -27 135 7 146 65 7 40 -10
90 -38 108 -31 20 -94 21 -122 1z"/>
<path d="M1812 2514 l3 -99 34 -3 c71 -7 121 34 121 100 0 59 -34 90 -104 96
l-57 5 3 -99z"/>
<path d="M2970 2510 l0 -130 90 0 90 0 0 35 0 35 -55 0 -55 0 0 95 0 95 -35 0
-35 0 0 -130z"/>
<path d="M3190 2510 l0 -130 35 0 35 0 0 130 0 130 -35 0 -35 0 0 -130z"/>
<path d="M3320 2510 l0 -130 35 0 34 0 3 65 3 66 47 -66 c40 -55 52 -65 78
-65 l30 0 0 130 0 130 -35 0 -34 0 -3 -66 -3 -66 -48 66 c-41 55 -53 66 -78
66 l-29 0 0 -130z"/>
<path d="M3610 2510 l0 -130 90 0 90 0 0 30 c0 30 -1 30 -55 30 -48 0 -55 3
-55 19 0 17 8 20 48 23 43 3 47 5 50 31 3 26 2 27 -47 27 -44 0 -51 3 -51 20
0 18 7 20 55 20 54 0 55 0 55 30 l0 30 -90 0 -90 0 0 -130z"/>
<path d="M1193 1865 c-35 -15 -55 -62 -46 -109 7 -35 48 -66 88 -66 34 0 86
33 73 46 -5 4 -16 0 -26 -9 -27 -25 -78 -22 -96 5 -48 68 17 161 80 113 25
-19 45 -19 38 -1 -3 8 -19 19 -36 25 -38 13 -36 13 -75 -4z"/>
<path d="M1580 1852 c0 -26 -3 -28 -33 -24 -42 5 -60 -15 -60 -68 0 -47 16
-70 49 -70 33 0 39 18 7 22 -25 3 -28 8 -31 44 -2 28 2 45 13 54 27 23 50 0
51 -51 2 -65 3 -69 14 -69 6 0 10 38 10 95 0 57 -4 95 -10 95 -5 0 -10 -13
-10 -28z"/>
<path d="M2330 1785 c0 -57 4 -95 10 -95 6 0 10 38 10 95 0 57 -4 95 -10 95
-6 0 -10 -38 -10 -95z"/>
<path d="M2540 1870 c0 -5 5 -10 10 -10 6 0 10 5 10 10 0 6 -4 10 -10 10 -5 0
-10 -4 -10 -10z"/>
<path d="M1870 1780 l0 -90 70 0 c40 0 70 4 70 10 0 6 -27 10 -61 10 l-60 0 3
33 c3 31 5 32 58 38 l55 6 -57 1 c-57 2 -58 2 -58 32 0 30 1 30 54 30 30 0 58
5 61 10 4 6 -20 10 -64 10 l-71 0 0 -90z"/>
<path d="M1350 1811 c-15 -29 -12 -87 6 -105 21 -22 67 -20 87 2 19 21 22 73
7 103 -8 14 -21 19 -50 19 -29 0 -42 -5 -50 -19z m80 -10 c21 -39 2 -101 -30
-101 -5 0 -16 7 -24 16 -30 30 -13 104 24 104 11 0 24 -9 30 -19z"/>
<path d="M1652 1818 c-18 -18 -15 -94 4 -112 20 -20 68 -21 84 -1 15 17 7 19
-21 5 -25 -14 -59 4 -59 30 0 17 7 20 50 20 54 0 61 10 34 48 -17 25 -71 31
-92 10z m62 -4 c9 -3 16 -15 16 -25 0 -15 -7 -19 -35 -19 -36 0 -46 15 -23 38
14 14 20 14 42 6z"/>
<path d="M2040 1824 c0 -3 9 -18 20 -33 l19 -28 -25 -36 c-17 -26 -21 -37 -11
-37 7 0 20 11 27 25 7 14 17 25 21 25 3 0 14 -11 23 -25 26 -40 39 -29 14 13
l-22 39 23 31 c15 22 18 32 9 32 -7 0 -21 -12 -29 -27 l-17 -26 -17 26 c-16
25 -35 36 -35 21z"/>
<path d="M2180 1733 c0 -55 4 -93 10 -93 6 0 10 13 10 30 0 27 2 29 30 24 43
-9 60 9 60 66 0 57 -13 71 -69 68 l-41 -1 0 -94z m78 75 c17 -17 15 -83 -2
-97 -11 -9 -20 -10 -35 -1 -36 19 -24 110 14 110 6 0 16 -5 23 -12z"/>
<path d="M2395 1820 c-11 -17 1 -23 23 -11 11 6 28 8 36 5 28 -11 17 -32 -20
-41 -21 -4 -42 -16 -48 -26 -23 -37 36 -75 71 -45 13 10 17 10 20 1 3 -7 14
-13 26 -13 18 0 19 2 7 10 -9 5 -17 31 -20 67 l-5 58 -42 3 c-23 2 -44 -2 -48
-8z m75 -80 c0 -27 -40 -43 -59 -25 -12 12 -12 17 -1 29 19 24 60 21 60 -4z"/>
<path d="M2540 1760 c0 -40 4 -70 10 -70 6 0 10 30 10 70 0 40 -4 70 -10 70
-6 0 -10 -30 -10 -70z"/>
<path d="M2590 1758 c0 -54 3 -68 15 -68 11 0 15 13 15 54 0 56 17 83 45 72
11 -4 15 -21 15 -66 0 -47 3 -60 15 -60 11 0 15 12 15 51 0 76 -11 89 -70 87
l-50 -2 0 -68z"/>
<path d="M2756 1814 c-22 -22 -21 -87 2 -107 27 -24 92 -20 92 5 0 6 -7 7 -15
4 -8 -3 -21 -9 -29 -12 -16 -6 -46 21 -46 42 0 10 13 14 50 14 43 0 50 3 50
19 0 28 -27 51 -60 51 -16 0 -36 -7 -44 -16z m68 -10 c25 -25 19 -34 -24 -34
-22 0 -40 4 -40 9 0 12 29 41 40 41 5 0 16 -7 24 -16z"/>
<path d="M2890 1760 c0 -56 3 -70 15 -70 12 0 15 13 15 56 0 47 3 57 20 61 11
3 20 9 20 14 0 13 -24 11 -38 -3 -9 -9 -12 -9 -12 0 0 7 -4 12 -10 12 -6 0
-10 -30 -10 -70z"/>
<path d="M750 1760 c0 -19 7 -20 130 -20 123 0 130 1 130 20 0 19 -7 20 -130
20 -123 0 -130 -1 -130 -20z"/>
<path d="M3690 1749 c-179 -3 -382 -7 -452 -8 -123 -1 -128 -2 -128 -22 0 -21
1 -21 228 -15 125 3 379 9 565 12 321 6 337 7 337 25 0 21 46 21 -550 8z"/>
</g>
</svg>
